HIERARCHY
ROOT hip
{
  OFFSET 0 0 0
  CHANNELS 6 Xposition Yposition Zposition Zrotation Yrotation Xrotation
  JOINT abdomen
  {
    OFFSET 0 20.6881 -0.73152
    CHANNELS 3 Zrotation Xrotation Yrotation
    JOINT chest
    {
      OFFSET 0 11.7043 -0.48768
      CHANNELS 3 Zrotation Xrotation Yrotation
      JOINT neck
      {
        OFFSET 0 22.1894 -2.19456
        CHANNELS 3 Zrotation Xrotation Yrotation
        JOINT head
        {
          OFFSET -0.24384 7.07133 1.2192
          CHANNELS 3 Zrotation Xrotation Yrotation
          JOINT leftEye
          {
            OFFSET 4.14528 8.04674 8.04672
            CHANNELS 3 Zrotation Xrotation Yrotation
            End Site
            {
              OFFSET 1 0 0
            }
          }
          JOINT rightEye
          {
            OFFSET -3.6576 8.04674 8.04672
            CHANNELS 3 Zrotation Xrotation Yrotation
            End Site
            {
              OFFSET 1 0 0
            }
          }
        }
      }
      JOINT rCollar
      {
        OFFSET -2.68224 19.2634 -4.8768
        CHANNELS 3 Zrotation Xrotation Yrotation
        JOINT rShldr
        {
          OFFSET -8.77824 -1.95073 1.46304
          CHANNELS 3 Zrotation Xrotation Yrotation
          JOINT rForeArm
          {
            OFFSET -28.1742 -1.7115 0.48768
            CHANNELS 3 Zrotation Xrotation Yrotation
            JOINT rHand
            {
              OFFSET -22.5879 0.773209 7.07136
              CHANNELS 3 Zrotation Xrotation Yrotation
              JOINT rThumb1
              {
                OFFSET -1.2192 -0.487915 3.41376
                CHANNELS 3 Zrotation Xrotation Yrotation
                JOINT rThumb2
                {
                  OFFSET -3.37035 -0.52449 3.41376
                  CHANNELS 3 Zrotation Xrotation Yrotation
                  End Site
                  {
                    OFFSET -1.78271 -1.18214 1.43049
                  }
                }
              }
              JOINT rIndex1
              {
                OFFSET -7.75947 0.938293 5.60832
                CHANNELS 3 Zrotation Xrotation Yrotation
                JOINT rIndex2
                {
                  OFFSET -2.54057 -0.884171 1.56538
                  CHANNELS 3 Zrotation Xrotation Yrotation
                  End Site
                  {
                    OFFSET -1.62519 -0.234802 1.16502
                  }
                }
              }
              JOINT rMid1
              {
                OFFSET -8.24714 1.18213 3.41376
                CHANNELS 3 Zrotation Xrotation Yrotation
                JOINT rMid2
                {
                  OFFSET -3.10165 -0.590103 1.0647
                  CHANNELS 3 Zrotation Xrotation Yrotation
                  End Site
                  {
                    OFFSET -2.48547 -0.328903 0.83742
                  }
                }
              }
              JOINT rRing1
              {
                OFFSET -8.82822 0.546677 1.51678
                CHANNELS 3 Zrotation Xrotation Yrotation
                JOINT rRing2
                {
                  OFFSET -2.60934 -0.819778 -0.0198488
                  CHANNELS 3 Zrotation Xrotation Yrotation
                  End Site
                  {
                    OFFSET -2.33842 -0.294052 0.168128
                  }
                }
              }
              JOINT rPinky1
              {
                OFFSET -8.27202 -0.0477905 -0.4584
                CHANNELS 3 Zrotation Xrotation Yrotation
                JOINT rPinky2
                {
                  OFFSET -1.82734 -0.647385 -0.700984
                  CHANNELS 3 Zrotation Xrotation Yrotation
                  End Site
                  {
                    OFFSET -1.69225 -0.51767 -0.607171
                  }
                }
              }
            }
          }
        }
      }
      JOINT lCollar
      {
        OFFSET 2.68224 19.2634 -4.8768
        CHANNELS 3 Zrotation Xrotation Yrotation
        JOINT lShldr
        {
          OFFSET 8.77824 -1.95073 1.46304
          CHANNELS 3 Zrotation Xrotation Yrotation
          JOINT lForeArm
          {
            OFFSET 28.1742 -1.7115 0.48768
            CHANNELS 3 Zrotation Xrotation Yrotation
            JOINT lHand
            {
              OFFSET 22.5879 0.773209 7.07136
              CHANNELS 3 Zrotation Xrotation Yrotation
              JOINT lThumb1
              {
                OFFSET 1.2192 -0.487915 3.41376
                CHANNELS 3 Zrotation Xrotation Yrotation
                JOINT lThumb2
                {
                  OFFSET 3.37035 -0.52449 3.41376
                  CHANNELS 3 Zrotation Xrotation Yrotation
                  End Site
                  {
                    OFFSET 1.78271 -1.18214 1.43049
                  }
                }
              }
              JOINT lIndex1
              {
                OFFSET 7.75947 0.938293 5.60832
                CHANNELS 3 Zrotation Xrotation Yrotation
                JOINT lIndex2
                {
                  OFFSET 2.54057 -0.884171 1.56538
                  CHANNELS 3 Zrotation Xrotation Yrotation
                  End Site
                  {
                    OFFSET 1.62519 -0.234802 1.16502
                  }
                }
              }
              JOINT lMid1
              {
                OFFSET 8.24714 1.18213 3.41376
                CHANNELS 3 Zrotation Xrotation Yrotation
                JOINT lMid2
                {
                  OFFSET 3.10165 -0.590103 1.0647
                  CHANNELS 3 Zrotation Xrotation Yrotation
                  End Site
                  {
                    OFFSET 2.48547 -0.328903 0.83742
                  }
                }
              }
              JOINT lRing1
              {
                OFFSET 8.82822 0.546677 1.51678
                CHANNELS 3 Zrotation Xrotation Yrotation
                JOINT lRing2
                {
                  OFFSET 2.60934 -0.819778 -0.0198488
                  CHANNELS 3 Zrotation Xrotation Yrotation
                  End Site
                  {
                    OFFSET 2.33842 -0.294052 0.168128
                  }
                }
              }
              JOINT lPinky1
              {
                OFFSET 8.27202 -0.0477905 -0.4584
                CHANNELS 3 Zrotation Xrotation Yrotation
                JOINT lPinky2
                {
                  OFFSET 1.82734 -0.647385 -0.700984
                  CHANNELS 3 Zrotation Xrotation Yrotation
                  End Site
                  {
                    OFFSET 1.69225 -0.51767 -0.607171
                  }
                }
              }
            }
          }
        }
      }
    }
  }
  JOINT rButtock
  {
    OFFSET -8.77824 4.35084 1.2192
    CHANNELS 3 Zrotation Xrotation Yrotation
    JOINT rThigh
    {
      OFFSET 0 -1.70687 -2.19456
      CHANNELS 3 Zrotation Xrotation Yrotation
      JOINT rShin
      {
        OFFSET 0 -36.8199 0.73152
        CHANNELS 3 Zrotation Xrotation Yrotation
        JOINT rFoot
        {
          OFFSET 0.73152 -45.1104 -5.12064
          CHANNELS 3 Zrotation Xrotation Yrotation
          End Site
          {
            OFFSET -1.1221 -3.69964 12.103
          }
        }
      }
    }
  }
  JOINT lButtock
  {
    OFFSET 8.77824 4.35084 1.2192
    CHANNELS 3 Zrotation Xrotation Yrotation
    JOINT lThigh
    {
      OFFSET 0 -1.70687 -2.19456
      CHANNELS 3 Zrotation Xrotation Yrotation
      JOINT lShin
      {
        OFFSET 0 -36.8199 0.73152
        CHANNELS 3 Zrotation Xrotation Yrotation
        JOINT lFoot
        {
          OFFSET -0.73152 -45.1104 -5.12064
          CHANNELS 3 Zrotation Xrotation Yrotation
          End Site
          {
            OFFSET 1.1221 -3.69964 12.103
          }
        }
      }
    }
  }
}
MOTION
Frames:	4
Frame Time:	0.03333
-19.7863 72.4743 117.908 172.62100219726562 -4.965799808502197 179.427978515625 -9.501280784606934 14.894001007080078 -5.375058650970459 6.558460235595703 -9.551460266113281 -1.2654097080230713 -4.230299472808838 12.44170093536377 -2.145289897918701 0.5319520235061646 -23.082698822021484 -3.6327004432678223 -0.0 0.0 -0.0 -0.0 0.0 -0.0 -1.673359936943744e-13 -3.899879957814864e-14 2.795929720383894e-13 44.606292724609375 37.149696350097656 27.962203979492188 -20.64080047607422 -52.67280578613281 112.6469955444336 -4.06003999710083 -48.22859573364258 -9.053618431091309 -3.1184796411842797e-10 -8.891729574855844e-10 1.8892799824588025e-10 -5.462009733392392e-10 -1.5452599200216355e-09 3.1396799049510093e-10 -3.118340030638933e-10 -8.891629654783628e-10 1.8890800035364919e-10 7.730909824371338 5.474879741668701 0.4173140823841095 -3.1184899107472575e-10 -8.89169959883418e-10 1.8892300224226943e-10 2.9055399894714355 0.9651829600334167 0.10290199518203735 -3.118419966696706e-10 -8.89169959883418e-10 1.8892999664732457e-10 10.27859878540039 0.73180091381073 0.025912316516041756 -3.118529878776144e-10 -8.891709590841401e-10 1.8893600572944536e-10 2.221669912338257 -0.733487069606781 -0.208919957280159 -1.673620009939869e-13 -3.900610100215397e-14 2.7941800891280455e-13 -33.85199737548828 35.96240234375 -55.53099822998047 23.050399780273438 -17.417898178100586 -46.782901763916016 0.09859280288219452 8.845900535583496 -1.2534899711608887 1.3977599078174308e-09 -7.482410246950622e-09 -8.023430253523145e-10 2.4129700459951664e-09 -1.2959000095236206e-08 -1.40241984691869e-09 1.3977500268325116e-09 -7.482410246950622e-09 -8.023359754361081e-10 -7.730909824371338 5.474879741668701 -0.4173140823841095 1.3977599078174308e-09 -7.482410246950622e-09 -8.023409714397189e-10 -2.9055399894714355 0.9651829600334167 -0.10290199518203735 1.3977500268325116e-09 -7.482420016913238e-09 -8.023419706404411e-10 -10.27859878540039 0.73180091381073 -0.025912316516041756 1.3977599078174308e-09 -7.482410246950622e-09 -8.023430253523145e-10 -2.221669912338257 -0.733487069606781 0.208919957280159 -2.0321699480147914e-16 0.0 -3.8825099822884138e-19 -35.317901611328125 -60.5514030456543 -38.75490188598633 -2.7664096355438232 74.22679901123047 3.451439619064331 0.004281899891793728 -0.3411889970302582 1.9582602977752686 2.0321699480147914e-16 0.0 3.8825099822884138e-19 1.6452399492263794 -27.400697708129883 16.542699813842773 0.7534380555152893 59.351707458496094 -2.3570399284362793 8.045960426330566 -18.18650245666504 17.15599822998047
-19.965000000000003 72.8178 115.97900000000001 172.958984375 -7.478900909423828 178.8279571533203 -8.950429916381836 14.7514009475708 -4.935399055480957 6.689839839935303 -9.516481399536133 -1.0994399785995483 -4.748479843139648 12.877301216125488 -2.9578697681427 0.9048150777816772 -22.586902618408203 -5.295300006866455 -0.0 0.0 -0.0 -0.0 0.0 -0.0 -3.359210018439793e-14 -3.908309629705939e-14 3.3012497900261617e-13 42.02849578857422 30.55520248413086 33.15080261230469 -22.686798095703125 -50.85810089111328 107.27799224853516 -4.382040500640869 -49.52290344238281 -9.480379104614258 -1.5185300239473065e-10 9.179509929957419e-11 -3.0616700841257227e-10 -2.507729857104124e-10 1.8517300193199304e-10 -5.33413979653119e-10 -1.518380005061104e-10 9.180309290535149e-11 -3.0618099722268255e-10 7.730909824371338 5.474879741668701 0.4173140823841095 -1.5185599999689714e-10 9.179500215505954e-11 -3.0616800761329444e-10 2.9055399894714355 0.9651829600334167 0.10290199518203735 -1.5184699331260987e-10 9.17952935886035e-11 -3.06162983854108e-10 10.27859878540039 0.73180091381073 0.025912316516041756 -1.5185799839834146e-10 9.179799975722602e-11 -3.061549902483307e-10 2.221669912338257 -0.733487069606781 -0.208919957280159 -3.365489920710736e-14 -3.908029770020166e-14 3.2988997818172994e-13 -33.27839660644531 41.195899963378906 -55.833595275878906 24.24690055847168 -19.569801330566406 -50.42959976196289 0.07769479602575302 7.452640056610107 -1.0531400442123413 7.61303964313953e-10 -4.511260254247418e-09 -7.639599508557637e-10 1.3131400411481309e-09 -7.80632003483106e-09 -1.3316100444527024e-09 7.612969699088978e-10 -4.511260254247418e-09 -7.639500143596933e-10 -7.730909824371338 5.474879741668701 -0.4173140823841095 7.613029651132308e-10 -4.511260254247418e-09 -7.639570087647485e-10 -2.9055399894714355 0.9651829600334167 -0.10290199518203735 7.6129796910962e-10 -4.511260254247418e-09 -7.639589516550416e-10 -10.27859878540039 0.73180091381073 -0.025912316516041756 7.613029651132308e-10 -4.511260254247418e-09 -7.639609500564859e-10 -2.221669912338257 -0.733487069606781 0.208919957280159 -2.0321699480147914e-16 0.0 -3.8825099822884138e-19 -33.99319839477539 -59.99239730834961 -35.9911994934082 -1.6682398319244385 67.51129913330078 2.302459955215454 -0.06371729075908661 3.313030242919922 3.6880698204040527 2.0321699480147914e-16 0.0 3.8825099822884138e-19 0.8260880708694458 -25.34939956665039 13.975799560546875 0.6917470693588257 58.388301849365234 -2.355220079421997 8.497519493103027 -18.23150062561035 17.999799728393555
-20.0997 73.1338 114.024 173.34898376464844 -9.401399612426758 178.21298217773438 -8.315139770507812 14.488200187683105 -4.383469581604004 6.857509613037109 -9.44788932800293 -0.9034730195999146 -5.448929786682129 13.496500015258789 -3.6051106452941895 1.4070899486541748 -22.122100830078125 -6.811089515686035 -0.0 0.0 -0.0 -0.0 0.0 -0.0 1.0399898986695327e-13 -9.026649192651545e-14 1.4397699341344578e-13 40.78739547729492 23.621803283691406 38.05130386352539 -25.09510040283203 -47.188697814941406 99.55390167236328 -4.934989929199219 -51.5027961730957 -10.189399719238281 -9.181860133322672e-11 6.223880438804841e-11 -3.2024799478946875e-10 -1.4831899597389508e-10 1.2483498956772365e-10 -5.52393963904052e-10 -9.181509025291135e-11 6.22331006172594e-11 -3.202599851981347e-10 7.730909824371338 5.474879741668701 0.4173140823841095 -9.181929522261711e-11 6.223380144554369e-11 -3.2024499718730226e-10 2.9055399894714355 0.9651829600334167 0.10290199518203735 -9.181350124620735e-11 6.223380144554369e-11 -3.2024000118369145e-10 10.27859878540039 0.73180091381073 0.025912316516041756 -9.182499899340613e-11 6.223870030463985e-11 -3.202279830194499e-10 2.221669912338257 -0.733487069606781 -0.208919957280159 1.0383799939686633e-13 -9.025249894222681e-14 1.436510009252337e-13 -34.32179641723633 46.898101806640625 -54.55030822753906 25.3341007232666 -21.850399017333984 -54.37419891357422 0.06748860329389572 5.761030197143555 -0.8115280866622925 -2.7753799258789513e-10 2.3476498522967404e-09 5.502440170168654e-10 -4.763899830173557e-10 4.052649771324468e-09 9.513039245234722e-10 -2.7754498699295027e-10 2.3476398602895188e-09 5.502560074255314e-10 -7.730909824371338 5.474879741668701 -0.4173140823841095 -2.7753696563159735e-10 2.3476398602895188e-09 5.502469591078807e-10 -2.9055399894714355 0.9651829600334167 -0.10290199518203735 -2.7754498699295027e-10 2.3476498522967404e-09 5.502459599071585e-10 -10.27859878540039 0.73180091381073 -0.025912316516041756 -2.775329965842843e-10 2.3476398602895188e-09 5.502409639035477e-10 -2.221669912338257 -0.733487069606781 0.208919957280159 -2.0321699480147914e-16 0.0 -3.8825099822884138e-19 -31.720396041870117 -58.84709548950195 -31.62259864807129 -1.0641601085662842 60.234107971191406 1.6208499670028687 -0.517297089099884 8.1519193649292 4.84574031829834 2.0321699480147914e-16 0.0 3.8825099822884138e-19 0.26795798540115356 -23.148801803588867 11.648499488830566 0.6431369781494141 57.40489196777344 -2.325820207595825 9.04874038696289 -18.02140235900879 19.190502166748047
-20.2585 73.4381 112.004 173.7310028076172 -10.953598976135254 177.51400756835938 -7.614599227905273 14.054899215698242 -3.5972800254821777 6.777449131011963 -9.243160247802734 -0.665785014629364 -6.0069708824157715 13.983400344848633 -4.246560573577881 1.63919997215271 -21.48780059814453 -8.241889953613281 -0.0 0.0 -0.0 -0.0 0.0 -0.0 1.722949853535244e-13 -1.3796999838184415e-13 1.3389099941599203e-13 40.23579788208008 17.261301040649414 43.528099060058594 -27.916595458984375 -42.564395904541016 87.56299591064453 -4.638039588928223 -50.19199752807617 -9.747429847717285 2.372400054184709e-10 4.6269196807280366e-10 3.011589866375175e-10 4.0109299215274063e-10 7.760129761003043e-10 5.277919767898709e-10 2.372389784621731e-10 4.626810046204355e-10 3.0114399862668506e-10 7.730909824371338 5.474879741668701 0.4173140823841095 2.372400054184709e-10 4.626860283796219e-10 3.0115995808266405e-10 2.9055399894714355 0.9651829600334167 0.10290199518203735 2.372460006228039e-10 4.626849459121729e-10 3.0116600879814825e-10 10.27859878540039 0.73180091381073 0.025912316516041756 2.372320118126936e-10 4.626889982262128e-10 3.011799698526829e-10 2.221669912338257 -0.733487069606781 -0.208919957280159 1.7213399488343745e-13 -1.3795599862129193e-13 1.3355299938871967e-13 -39.29909896850586 53.035400390625 -49.01579666137695 26.561498641967773 -24.96990394592285 -59.037498474121094 0.0025688500609248877 0.6944319009780884 -0.08381890505552292 -7.246469535537869e-10 6.8743495340584104e-09 1.3096399520406976e-09 -1.2521198522463806e-09 1.1863700244418851e-08 2.264400000839828e-09 -7.246519495573978e-10 6.8743406522742134e-09 1.3096500550702217e-09 -7.730909824371338 5.474879741668701 -0.4173140823841095 -7.246430122620495e-10 6.8743495340584104e-09 1.3096399520406976e-09 -2.9055399894714355 0.9651829600334167 -0.10290199518203735 -7.246560018714376e-10 6.8743495340584104e-09 1.3096399520406976e-09 -10.27859878540039 0.73180091381073 -0.025912316516041756 -7.246420130613274e-10 6.8743406522742134e-09 1.3096399520406976e-09 -2.221669912338257 -0.733487069606781 0.208919957280159 -2.0321699480147914e-16 0.0 -3.8825099822884138e-19 -29.123498916625977 -57.341697692871094 -26.81879997253418 -0.7076369524002075 52.9962043762207 1.1686999797821045 -1.1158599853515625 13.70849895477295 5.149989604949951 2.0321699480147914e-16 0.0 3.8825099822884138e-19 0.15178202092647552 -20.764299392700195 10.177300453186035 0.5992789268493652 56.43020248413086 -2.289559841156006 9.66387939453125 -17.937801361083984 20.398998260498047
